# xmcd
#
# Track frame offsets: 
#        150
#        13575
#        34961
#        51901
#        63076
#        76282
#        95487
#        111475
#        131185
#        145150
#        155257
#        170100
#
# Disc length: 2502 seconds
#
# Revision: 0
# Processed by: cddbd v1.5.2PL0 Copyright (c) Steve Scherf et al.
# Submitted via: ExactAudioCopy v0.99pb4
#
DISCID=a509c40c
DTITLE=Gravel Creek - Left Handed Fiddle Player
DYEAR=2011
DGENRE=Bluegrass
TTITLE0=Catfish John
TTITLE1=Glendale Train
TTITLE2=Evergreens
TTITLE3=Grandma's Feather Bed
TTITLE4=Left Handed Fiddle Player
TTITLE5=Sweetest Song
TTITLE6=Fallen Leaves
TTITLE7=You Ain't Goin' Nowhere
TTITLE8=Old Home Place
TTITLE9=I Shot Your Dog
TTITLE10=Love of the Mountains
TTITLE11=Fox on the Run
EXTD=
EXTT0=
EXTT1=
EXTT2=
EXTT3=
EXTT4=
EXTT5=
EXTT6=
EXTT7=
EXTT8=
EXTT9=
EXTT10=
EXTT11=
PLAYORDER=
